<svg width="97" height="59" viewBox="0 0 97 59" fill="none" xmlns="http://www.w3.org/2000/svg">
<g clip-path="url(#clip0_8_30)">
<path d="M12.5581 0V3.83066C11.5028 3.83066 10.6796 3.98157 10.0882 4.28338C9.49679 4.57357 9.24169 5.15977 9.32287 6.04199L9.86206 11.1785C10.0012 12.4786 9.85626 13.5292 9.42722 14.3301C9.00978 15.131 8.36623 15.7464 7.49655 16.1758C6.63848 16.5938 5.62386 16.8897 4.45271 17.0638C5.69343 17.2495 6.74284 17.5514 7.60092 17.9693C8.45899 18.3871 9.08516 18.9907 9.47941 19.7801C9.87366 20.5695 10.0012 21.6258 9.86206 22.9492L9.32287 28.0857C9.24169 28.9679 9.49679 29.5541 10.0882 29.8443C10.6796 30.146 11.5028 30.297 12.5581 30.297V34.1277C9.35765 34.1277 7.1081 33.6401 5.80939 32.6651C4.52229 31.7016 4.00048 30.0475 4.24398 27.7026L4.76579 22.7227C4.85856 21.8406 4.70782 21.1499 4.31357 20.6507C3.93091 20.1516 3.36272 19.8033 2.60901 19.6059C1.85529 19.3971 0.985626 19.2926 0 19.2926V14.8351C0.97403 14.8351 1.8379 14.7364 2.59162 14.5391C3.34533 14.3301 3.91932 13.9761 4.31357 13.477C4.70782 12.9778 4.85856 12.2871 4.76579 11.4049L4.24398 6.45987C3.98889 4.06861 4.51068 2.39706 5.80939 1.4452C7.1081 0.481734 9.35765 0 12.5581 0Z" fill="url(#paint0_linear_8_30)"/>
<path d="M27.633 4.5097C30.5087 4.5097 32.6771 5.62408 34.1381 7.85282C35.6108 10.07 36.3471 13.1635 36.3471 17.1335C36.3471 21.115 35.6108 24.2318 34.1381 26.4837C32.6771 28.7241 30.5087 29.8443 27.633 29.8443C24.7342 29.8443 22.5541 28.7241 21.0931 26.4837C19.6436 24.2318 18.9189 21.115 18.9189 17.1335C18.9189 13.1635 19.6436 10.07 21.0931 7.85282C22.5541 5.62408 24.7342 4.5097 27.633 4.5097ZM27.633 8.49707C26.4039 8.49707 25.5052 9.15873 24.937 10.482C24.3689 11.7938 24.0847 14.0109 24.0847 17.1335C24.0847 18.155 24.1022 19.0662 24.1369 19.8671C24.1718 20.6565 24.224 21.3588 24.2935 21.974L30.1724 9.66367C29.8942 9.22258 29.5463 8.92077 29.1289 8.75825C28.7231 8.58413 28.2244 8.49707 27.633 8.49707ZM31.1465 17.1335C31.1465 15.7986 31.1175 14.6725 31.0595 13.7555L25.511 25.2301C25.7662 25.4738 26.0676 25.6421 26.4154 25.735C26.775 25.8278 27.1808 25.8743 27.633 25.8743C28.4564 25.8743 29.1231 25.5958 29.6333 25.0386C30.1551 24.4814 30.5377 23.5643 30.7812 22.2875C31.0248 20.9989 31.1465 19.2809 31.1465 17.1335Z" fill="url(#paint1_linear_8_30)"/>
<path d="M48.5 4.5097C51.3757 4.5097 53.5441 5.62408 55.0051 7.85282C56.4778 10.07 57.214 13.1635 57.214 17.1335C57.214 21.115 56.4778 24.2318 55.0051 26.4837C53.5441 28.7241 51.3757 29.8443 48.5 29.8443C45.601 29.8443 43.4211 28.7241 41.9601 26.4837C40.5106 24.2318 39.7859 21.115 39.7859 17.1335C39.7859 13.1635 40.5106 10.07 41.9601 7.85282C43.4211 5.62408 45.601 4.5097 48.5 4.5097ZM48.5 8.49707C47.2709 8.49707 46.3722 9.15873 45.804 10.482C45.2359 11.7938 44.9518 14.0109 44.9518 17.1335C44.9518 18.155 44.9692 19.0662 45.0039 19.8671C45.0387 20.6565 45.0909 21.3588 45.1605 21.974L51.0394 9.66367C50.7611 9.22258 50.4132 8.92077 49.9959 8.75825C49.5899 8.58413 49.0913 8.49707 48.5 8.49707ZM52.0135 17.1335C52.0135 15.7986 51.9845 14.6725 51.9265 13.7555L46.378 25.2301C46.633 25.4738 46.9346 25.6421 47.2825 25.735C47.642 25.8278 48.0478 25.8743 48.5 25.8743C49.3233 25.8743 49.99 25.5958 50.5003 25.0386C51.022 24.4814 51.4047 23.5643 51.6482 22.2875C51.8917 20.9989 52.0135 19.2809 52.0135 17.1335Z" fill="url(#paint2_linear_8_30)"/>
<path d="M68.1146 29.8095L62.8966 28.1902L71.889 9.26321H61.2964V5.11914H77.4549V8.84532L68.1146 29.8095Z" fill="url(#paint3_linear_8_30)"/>
<path d="M84.442 0C87.6423 0 89.8861 0.481734 91.1733 1.4452C92.472 2.40867 92.9996 4.06862 92.7561 6.42505L92.2342 11.4049C92.1414 12.2871 92.2922 12.9778 92.6865 13.477C93.0807 13.9761 93.6488 14.3301 94.391 14.5391C95.1447 14.7364 96.0144 14.8351 97 14.8351V19.2926C96.026 19.2926 95.1622 19.3971 94.4084 19.6059C93.6547 19.8033 93.0807 20.1516 92.6865 20.6507C92.2922 21.1499 92.1414 21.8406 92.2342 22.7227L92.7561 27.6678C93.0228 30.0475 92.5009 31.719 91.1906 32.6824C89.8919 33.646 87.6423 34.1277 84.442 34.1277V30.297C85.5088 30.297 86.3379 30.146 86.9292 29.8443C87.5207 29.5541 87.7699 28.9679 87.6772 28.0857L87.1379 22.9492C86.9988 21.6374 87.1379 20.5868 87.5554 19.7976C87.9844 18.9965 88.6338 18.3871 89.5035 17.9693C90.3731 17.5397 91.3935 17.238 92.5647 17.0638C91.3239 16.8781 90.2688 16.5763 89.3991 16.1584C88.541 15.7405 87.9149 15.1369 87.5207 14.3476C87.1264 13.5466 86.9988 12.4903 87.1379 11.1785L87.6772 6.04199C87.7699 5.15977 87.5148 4.57357 86.9119 4.28338C86.3204 3.98157 85.4972 3.83066 84.442 3.83066V0Z" fill="url(#paint4_linear_8_30)"/>
<path d="M12.2745 42.162C13.2416 42.162 14.0208 42.4023 14.6121 42.8829C15.2036 43.3634 15.6349 44.0425 15.9063 44.9201C16.1845 45.7976 16.3238 46.8388 16.3238 48.0438C16.3238 49.1861 16.1568 50.2064 15.8228 51.1048C15.4888 51.9963 15.0053 52.6998 14.3722 53.2151C13.739 53.7237 12.9703 53.9778 12.0658 53.9778C10.9874 53.9778 10.1108 53.5913 9.43591 52.8181V57.906L6.13812 58.2508V42.5277H9.06022L9.20633 43.7708C9.65856 43.1928 10.1525 42.7819 10.6882 42.5381C11.224 42.2874 11.7527 42.162 12.2745 42.162ZM11.2518 44.5962C10.8691 44.5962 10.5317 44.7112 10.2395 44.941C9.94729 45.1707 9.67942 45.4842 9.43591 45.8812V50.5616C9.66551 50.9028 9.90554 51.1536 10.156 51.3137C10.4134 51.4739 10.7161 51.554 11.0639 51.554C11.6484 51.554 12.1041 51.2894 12.4311 50.76C12.7581 50.2237 12.9215 49.3323 12.9215 48.0856C12.9215 47.1662 12.8555 46.4558 12.7232 45.9543C12.5911 45.446 12.3998 45.0942 12.1493 44.8992C11.8988 44.6971 11.5997 44.5962 11.2518 44.5962Z" fill="url(#paint5_linear_8_30)"/>
<path d="M27.9882 50.4258C27.9882 50.8436 28.0438 51.1466 28.1552 51.3346C28.2734 51.5227 28.4613 51.6655 28.7186 51.763L28.0404 53.9361C27.3863 53.8734 26.8333 53.7305 26.3809 53.5077C25.9357 53.2778 25.5844 52.9331 25.3269 52.4735C24.9026 52.9818 24.3599 53.3614 23.6989 53.6122C23.038 53.8559 22.3632 53.9778 21.6743 53.9778C20.5333 53.9778 19.6219 53.654 18.94 53.0062C18.2652 52.3515 17.9278 51.5123 17.9278 50.4885C17.9278 49.2835 18.3974 48.3537 19.3366 47.699C20.2828 47.0444 21.6117 46.717 23.3232 46.717H24.8155V46.2991C24.8155 45.1639 24.0851 44.5962 22.6239 44.5962C22.2692 44.5962 21.8134 44.6485 21.2569 44.7529C20.7003 44.8504 20.1437 44.9931 19.5871 45.1812L18.8252 42.9874C19.5419 42.7157 20.2864 42.5102 21.0586 42.3709C21.8378 42.2317 22.5336 42.162 23.1458 42.162C24.7947 42.162 26.0122 42.4998 26.7984 43.1753C27.5916 43.844 27.9882 44.8121 27.9882 46.0797V50.4258ZM22.8118 51.6167C23.1667 51.6167 23.5389 51.5123 23.9285 51.3033C24.3181 51.0875 24.6138 50.7845 24.8155 50.3945V48.5975H24.0016C23.0832 48.5975 22.4083 48.7402 21.977 49.0258C21.5456 49.3044 21.3299 49.7153 21.3299 50.2586C21.3299 50.6834 21.4586 51.0178 21.7161 51.2615C21.9804 51.4984 22.3457 51.6167 22.8118 51.6167Z" fill="url(#paint6_linear_8_30)"/>
<path d="M41.6355 42.5277L37.9411 53.6227H34.0589L30.3227 42.5277H33.8815L36.0418 51.0944L38.2958 42.5277H41.6355Z" fill="url(#paint7_linear_8_30)"/>
<path d="M53.0286 50.4258C53.0286 50.8436 53.0842 51.1466 53.1956 51.3346C53.3138 51.5227 53.5017 51.6655 53.759 51.763L53.0808 53.9361C52.4267 53.8734 51.8737 53.7305 51.4214 53.5077C50.9761 53.2778 50.6248 52.9331 50.3673 52.4735C49.943 52.9818 49.4003 53.3614 48.7393 53.6122C48.0784 53.8559 47.4036 53.9778 46.7147 53.9778C45.5737 53.9778 44.6623 53.654 43.9804 53.0062C43.3056 52.3515 42.9682 51.5123 42.9682 50.4885C42.9682 49.2835 43.4379 48.3537 44.377 47.699C45.3232 47.0444 46.6521 46.717 48.3636 46.717H49.8559V46.2991C49.8559 45.1639 49.1255 44.5962 47.6645 44.5962C47.3096 44.5962 46.8538 44.6485 46.2973 44.7529C45.7407 44.8504 45.1841 44.9931 44.6275 45.1812L43.8658 42.9874C44.5823 42.7157 45.3268 42.5102 46.099 42.3709C46.8783 42.2317 47.574 42.162 48.1862 42.162C49.8351 42.162 51.0526 42.4998 51.8388 43.1753C52.632 43.844 53.0286 44.8121 53.0286 46.0797V50.4258ZM47.8522 51.6167C48.2071 51.6167 48.5793 51.5123 48.9689 51.3033C49.3585 51.0875 49.6542 50.7845 49.8559 50.3945V48.5975H49.042C48.1236 48.5975 47.4487 48.7402 47.0174 49.0258C46.5861 49.3044 46.3703 49.7153 46.3703 50.2586C46.3703 50.6834 46.4991 51.0178 46.7565 51.2615C47.0208 51.4984 47.3861 51.6167 47.8522 51.6167Z" fill="url(#paint8_linear_8_30)"/>
<path d="M56.2189 53.6226V42.5277H59.0993L59.3289 43.8126C59.8229 43.2555 60.3446 42.8411 60.8943 42.5695C61.4439 42.2978 62.0701 42.162 62.7728 42.162C63.7189 42.162 64.4634 42.451 65.0061 43.0292C65.5487 43.6072 65.82 44.4221 65.82 45.4737V53.6226H62.5223V46.4245C62.5223 45.7419 62.4458 45.2683 62.2927 45.0036C62.1466 44.732 61.8683 44.5962 61.4577 44.5962C61.1099 44.5962 60.776 44.7076 60.4559 44.9306C60.1428 45.1534 59.8297 45.4633 59.5168 45.8603V53.6226H56.2189Z" fill="url(#paint9_linear_8_30)"/>
<path d="M76.9314 42.162C77.7175 42.162 78.2985 42.4197 78.6742 42.9351C79.0568 43.4435 79.2481 44.2689 79.2481 45.411V53.6226H76.42V45.7872C76.42 45.3972 76.3817 45.1221 76.3052 44.9619C76.2356 44.8016 76.0895 44.7216 75.8669 44.7216C75.693 44.7216 75.512 44.7738 75.3242 44.8783C75.1433 44.9758 74.9416 45.1639 74.719 45.4424V53.6226H72.4022V45.7872C72.4022 45.3972 72.3638 45.1221 72.2873 44.9619C72.2177 44.8016 72.0716 44.7216 71.849 44.7216C71.6751 44.7216 71.4942 44.7738 71.3063 44.8783C71.1254 44.9758 70.9237 45.1639 70.7011 45.4424V53.6226H67.8311V42.5277H70.2523L70.4715 43.6037C70.8193 43.1301 71.1707 42.7714 71.5255 42.5277C71.8803 42.2839 72.3012 42.162 72.7883 42.162C73.2057 42.162 73.5605 42.2699 73.8527 42.4859C74.152 42.6948 74.3641 43.0256 74.4894 43.4783C74.8233 43.0883 75.1921 42.7714 75.5955 42.5277C75.9991 42.2839 76.4443 42.162 76.9314 42.162Z" fill="url(#paint10_linear_8_30)"/>
<path d="M91.1004 40.7516L91.8728 43.1753C91.4832 43.3286 91.0274 43.4401 90.5057 43.5097C89.9838 43.5793 89.3751 43.6141 88.6794 43.6141C89.3751 43.9137 89.9038 44.2862 90.2656 44.7321C90.6344 45.1707 90.8187 45.7488 90.8187 46.4663C90.8187 47.1836 90.6274 47.8244 90.2448 48.3886C89.862 48.9458 89.3195 49.3846 88.6168 49.7049C87.9141 50.0253 87.0826 50.1855 86.1225 50.1855C85.6633 50.1855 85.2354 50.1437 84.8389 50.0601C84.7205 50.1228 84.6302 50.2133 84.5676 50.3318C84.5049 50.4501 84.4736 50.5721 84.4736 50.6974C84.4736 50.8715 84.5431 51.0282 84.6824 51.1675C84.8285 51.3069 85.1659 51.3764 85.6946 51.3764H87.5105C88.3732 51.3764 89.1176 51.5157 89.7438 51.7944C90.3769 52.0729 90.8674 52.4526 91.2153 52.9331C91.5631 53.4137 91.7371 53.964 91.7371 54.5838C91.7371 55.7191 91.2397 56.614 90.2448 57.2687C89.2498 57.9234 87.7714 58.2508 85.8094 58.2508C84.3901 58.2508 83.2908 58.1045 82.5117 57.812C81.7393 57.5265 81.2002 57.1155 80.8941 56.5791C80.5949 56.0499 80.4453 55.4195 80.4453 54.6882H83.3673C83.3673 55.0086 83.43 55.2698 83.5552 55.4718C83.6874 55.6807 83.9344 55.834 84.2962 55.9315C84.6649 56.029 85.1972 56.0778 85.8929 56.0778C86.5956 56.0778 87.1313 56.022 87.5 55.9106C87.8688 55.7991 88.1192 55.6459 88.2515 55.4509C88.3906 55.2628 88.4602 55.0504 88.4602 54.8136C88.4602 54.4862 88.3314 54.2216 88.0741 54.0196C87.8166 53.8177 87.4097 53.7166 86.853 53.7166H85.0893C83.8926 53.7166 83.0229 53.4972 82.4803 53.0584C81.9376 52.6127 81.6663 52.0938 81.6663 51.5018C81.6663 51.0909 81.7741 50.7009 81.9898 50.3318C82.2124 49.9627 82.5221 49.6527 82.9187 49.4019C82.209 49.0258 81.701 48.5835 81.3949 48.0751C81.0888 47.5598 80.9358 46.9433 80.9358 46.226C80.9358 45.3902 81.148 44.6728 81.5724 44.0738C81.9968 43.4679 82.5811 43.0013 83.3256 42.6739C84.077 42.3466 84.9329 42.1829 85.8929 42.1829C86.7208 42.1968 87.441 42.1411 88.0532 42.0157C88.6654 41.8833 89.2151 41.7058 89.7021 41.4829C90.189 41.253 90.6552 41.0093 91.1004 40.7516ZM85.9764 44.3246C85.4546 44.3246 85.0406 44.4918 84.7345 44.8261C84.4283 45.1534 84.2753 45.6061 84.2753 46.1842C84.2753 46.7971 84.4319 47.2672 84.745 47.5945C85.058 47.9219 85.4686 48.0856 85.9764 48.0856C87.1034 48.0856 87.667 47.4378 87.667 46.1424C87.667 44.9306 87.1034 44.3246 85.9764 44.3246Z" fill="url(#paint11_linear_8_30)"/>
</g>
<defs>
<linearGradient id="paint0_linear_8_30" x1="-2.05005" y1="36.7549" x2="99.9719" y2="0.679714" gradientUnits="userSpaceOnUse">
<stop stop-color="#00C0FD"/>
<stop offset="1" stop-color="#E70FAA"/>
</linearGradient>
<linearGradient id="paint1_linear_8_30" x1="-2.05004" y1="36.7549" x2="99.972" y2="0.679694" gradientUnits="userSpaceOnUse">
<stop stop-color="#00C0FD"/>
<stop offset="1" stop-color="#E70FAA"/>
</linearGradient>
<linearGradient id="paint2_linear_8_30" x1="-2.05007" y1="36.7549" x2="99.9719" y2="0.679696" gradientUnits="userSpaceOnUse">
<stop stop-color="#00C0FD"/>
<stop offset="1" stop-color="#E70FAA"/>
</linearGradient>
<linearGradient id="paint3_linear_8_30" x1="-2.05005" y1="36.7549" x2="99.9719" y2="0.679708" gradientUnits="userSpaceOnUse">
<stop stop-color="#00C0FD"/>
<stop offset="1" stop-color="#E70FAA"/>
</linearGradient>
<linearGradient id="paint4_linear_8_30" x1="-2.05002" y1="36.7549" x2="99.972" y2="0.679722" gradientUnits="userSpaceOnUse">
<stop stop-color="#00C0FD"/>
<stop offset="1" stop-color="#E70FAA"/>
</linearGradient>
<linearGradient id="paint5_linear_8_30" x1="-0.24442" y1="59.3454" x2="93.6381" y2="39.5069" gradientUnits="userSpaceOnUse">
<stop stop-color="#13B0F5"/>
<stop offset="1" stop-color="#CA24B4"/>
</linearGradient>
<linearGradient id="paint6_linear_8_30" x1="-0.244449" y1="59.3454" x2="93.638" y2="39.5069" gradientUnits="userSpaceOnUse">
<stop stop-color="#13B0F5"/>
<stop offset="1" stop-color="#CA24B4"/>
</linearGradient>
<linearGradient id="paint7_linear_8_30" x1="-0.244431" y1="59.3454" x2="93.6381" y2="39.5069" gradientUnits="userSpaceOnUse">
<stop stop-color="#13B0F5"/>
<stop offset="1" stop-color="#CA24B4"/>
</linearGradient>
<linearGradient id="paint8_linear_8_30" x1="-0.2444" y1="59.3454" x2="93.6381" y2="39.5069" gradientUnits="userSpaceOnUse">
<stop stop-color="#13B0F5"/>
<stop offset="1" stop-color="#CA24B4"/>
</linearGradient>
<linearGradient id="paint9_linear_8_30" x1="-0.244434" y1="59.3454" x2="93.6381" y2="39.5068" gradientUnits="userSpaceOnUse">
<stop stop-color="#13B0F5"/>
<stop offset="1" stop-color="#CA24B4"/>
</linearGradient>
<linearGradient id="paint10_linear_8_30" x1="-0.244412" y1="59.3454" x2="93.638" y2="39.5069" gradientUnits="userSpaceOnUse">
<stop stop-color="#13B0F5"/>
<stop offset="1" stop-color="#CA24B4"/>
</linearGradient>
<linearGradient id="paint11_linear_8_30" x1="-0.244413" y1="59.3454" x2="93.6381" y2="39.5069" gradientUnits="userSpaceOnUse">
<stop stop-color="#13B0F5"/>
<stop offset="1" stop-color="#CA24B4"/>
</linearGradient>
<clipPath id="clip0_8_30">
<rect width="97" height="59" fill="white"/>
</clipPath>
</defs>
</svg>
